{
    "asset" : {
        "generator" : "Khronos glTF Blender I/O v1.5.17",
        "version" : "2.0"
    },
    "scene" : 0,
    "scenes" : [
        {
            "name" : "Scene",
            "nodes" : [
                0
            ]
        }
    ],
    "nodes" : [
        {
            "mesh" : 0,
            "name" : "dec_03_arrow",
            "rotation" : [
                0.7071068286895752,
                0,
                0,
                0.7071067094802856
            ]
        }
    ],
    "materials" : [
        {
            "doubleSided" : true,
            "name" : "black",
            "pbrMetallicRoughness" : {
                "baseColorFactor" : [
                    0,
                    0,
                    0,
                    1
                ],
                "metallicFactor" : 0,
                "roughnessFactor" : 0.949999988079071
            }
        }
    ],
    "meshes" : [
        {
            "name" : "dec_logo_00.001",
            "primitives" : [
                {
                    "attributes" : {
                        "POSITION" : 0,
                        "NORMAL" : 1
                    },
                    "indices" : 2,
                    "material" : 0
                }
            ]
        }
    ],
    "accessors" : [
        {
            "bufferView" : 0,
            "componentType" : 5126,
            "count" : 4116,
            "max" : [
                0.7000828981399536,
                0.5911775827407837,
                -0.01799994707107544
            ],
            "min" : [
                -5.610000133514404,
                -0.5911775827407837,
                -1.4819999933242798
            ],
            "type" : "VEC3"
        },
        {
            "bufferView" : 1,
            "componentType" : 5126,
            "count" : 4116,
            "type" : "VEC3"
        },
        {
            "bufferView" : 2,
            "componentType" : 5123,
            "count" : 6192,
            "type" : "SCALAR"
        }
    ],
    "bufferViews" : [
        {
            "buffer" : 0,
            "byteLength" : 49392,
            "byteOffset" : 0
        },
        {
            "buffer" : 0,
            "byteLength" : 49392,
            "byteOffset" : 49392
        },
        {
            "buffer" : 0,
            "byteLength" : 12384,
            "byteOffset" : 98784
        }
    ],
    "buffers" : [
        {
            "byteLength" : 111168,
            "uri" : "data:application/octet-stream;base64,"
        }
    ]
}
